# 3ds Max Wavefront OBJ Exporter v0.97b - (c)2007 guruware
# File Created: 22.05.2017 12:19:42

mtllib water2.mtl

#
# object Plane001
#

v  -23.6913 0.0000 27.0043
v  23.6913 0.0000 27.0043
v  -23.6913 0.0000 -27.0043
v  23.6913 0.0000 -27.0043
v  23.6913 0.0000 -15.0163
v  -23.6913 0.0000 -12.5492
v  23.6913 0.0000 11.2277
v  -23.6913 0.0000 12.2821
v  3.7665 0.0000 -27.0043
v  3.2632 0.0000 -13.9526
v  2.2738 0.0000 11.7043
v  1.6838 0.0000 27.0043
# 12 vertices

vn 0.0000 1.0000 -0.0000
# 1 vertex normals

vt 1.0000 0.0000 0.0000
vt 1.0000 0.2921 0.0000
vt 0.5480 0.2833 0.0000
vt 0.5355 0.0000 0.0000
vt 1.0000 0.7780 0.0000
vt 1.0000 1.0000 0.0000
vt 0.5795 1.0000 0.0000
vt 0.5689 0.7583 0.0000
vt 0.0000 1.0000 0.0000
vt 0.0000 0.7324 0.0000
vt 0.0000 0.2726 0.0000
vt 0.0000 0.0000 0.0000
# 12 texture coords

g Plane001
usemtl Material__25
s 1
f 2/1/1 7/2/1 11/3/1 12/4/1 
f 5/5/1 4/6/1 9/7/1 10/8/1 
f 7/2/1 5/5/1 10/8/1 11/3/1 
f 3/9/1 6/10/1 10/8/1 9/7/1 
f 6/10/1 8/11/1 11/3/1 10/8/1 
f 8/11/1 1/12/1 12/4/1 11/3/1 
# 6 polygons

