# 3ds Max Wavefront OBJ Exporter v0.97b - (c)2007 guruware
# File Created: 23.05.2017 13:02:02

mtllib water2.mtl

#
# object water
#

v  -832.6431 21.7530 3388.1633
v  -829.9773 21.7530 3876.1174
v  -36.5451 21.7530 3871.7827
v  -39.2109 21.7530 3383.8286
v  756.8871 21.7530 3867.4480
v  754.2213 21.7530 3379.4939
v  1550.3193 21.7530 3863.1133
v  1547.6536 21.7530 3375.1592
v  2343.7515 21.7530 3858.7786
v  2341.0857 21.7530 3370.8245
v  -835.3090 21.7530 2900.2095
v  -41.8767 21.7530 2895.8748
v  751.5555 21.7530 2891.5400
v  1544.9877 21.7530 2887.2053
v  2338.4199 21.7530 2882.8706
v  -837.9747 21.7530 2412.2556
v  -44.5425 21.7530 2407.9209
v  748.8896 21.7530 2403.5862
v  1542.3218 21.7530 2399.2515
v  2335.7539 21.7530 2394.9167
v  -840.6405 21.7530 1924.3016
v  -47.2084 21.7530 1919.9669
v  746.2238 21.7530 1915.6322
v  1539.6560 21.7530 1911.2975
v  2333.0884 21.7530 1906.9628
v  -843.3064 21.7530 1436.3477
v  -49.8741 21.7530 1432.0129
v  743.5580 21.7530 1427.6782
v  1536.9902 21.7530 1423.3435
v  2330.4224 21.7530 1419.0088
v  -845.9722 21.7530 948.3937
v  -52.5400 21.7530 944.0590
v  740.8922 21.7530 939.7242
v  1534.3245 21.7530 935.3895
v  2327.7566 21.7530 931.0548
v  -848.6379 21.7530 460.4397
v  -55.2058 21.7530 456.1049
v  738.2264 21.7530 451.7702
v  1531.6586 21.7530 447.4355
v  2325.0908 21.7530 443.1008
v  -851.3038 21.7530 -27.5143
v  -57.8716 21.7530 -31.8491
v  735.5606 21.7530 -36.1838
v  1528.9928 21.7530 -40.5185
v  2322.4248 21.7530 -44.8532
v  -853.9696 21.7530 -515.4683
v  -60.5374 21.7530 -519.8030
v  732.8948 21.7530 -524.1377
v  1526.3269 21.7530 -528.4724
v  2319.7593 21.7530 -532.8071
v  -856.6354 21.7530 -1003.4222
v  -63.2032 21.7530 -1007.7570
v  730.2289 21.7530 -1012.0917
v  1523.6611 21.7530 -1016.4264
v  2317.0933 21.7530 -1020.7611
v  -859.3013 21.7530 -1491.3762
v  -65.8691 21.7530 -1495.7109
v  727.5631 21.7530 -1500.0457
v  1520.9954 21.7530 -1504.3804
v  2314.4275 21.7530 -1508.7151
v  -861.9670 21.7530 -1979.3301
v  -68.5349 21.7530 -1983.6648
v  724.8973 21.7530 -1987.9995
v  1518.3296 21.7530 -1992.3342
v  2311.7617 21.7530 -1996.6689
# 65 vertices

vn 0.0000 1.0000 -0.0000
# 1 vertex normals

vt 0.0000 0.0833 0.0000
vt 0.0000 0.0000 0.0000
vt 0.2500 0.0000 0.0000
vt 0.2500 0.0833 0.0000
vt 0.5000 0.0000 0.0000
vt 0.5000 0.0833 0.0000
vt 0.7500 0.0000 0.0000
vt 0.7500 0.0833 0.0000
vt 1.0000 0.0000 0.0000
vt 1.0000 0.0833 0.0000
vt 0.0000 0.1667 0.0000
vt 0.2500 0.1667 0.0000
vt 0.5000 0.1667 0.0000
vt 0.7500 0.1667 0.0000
vt 1.0000 0.1667 0.0000
vt 0.0000 0.2500 0.0000
vt 0.2500 0.2500 0.0000
vt 0.5000 0.2500 0.0000
vt 0.7500 0.2500 0.0000
vt 1.0000 0.2500 0.0000
vt 0.0000 0.3333 0.0000
vt 0.2500 0.3333 0.0000
vt 0.5000 0.3333 0.0000
vt 0.7500 0.3333 0.0000
vt 1.0000 0.3333 0.0000
vt 0.0000 0.4167 0.0000
vt 0.2500 0.4167 0.0000
vt 0.5000 0.4167 0.0000
vt 0.7500 0.4167 0.0000
vt 1.0000 0.4167 0.0000
vt 0.0000 0.5000 0.0000
vt 0.2500 0.5000 0.0000
vt 0.5000 0.5000 0.0000
vt 0.7500 0.5000 0.0000
vt 1.0000 0.5000 0.0000
vt 0.0000 0.5833 0.0000
vt 0.2500 0.5833 0.0000
vt 0.5000 0.5833 0.0000
vt 0.7500 0.5833 0.0000
vt 1.0000 0.5833 0.0000
vt 0.0000 0.6667 0.0000
vt 0.2500 0.6667 0.0000
vt 0.5000 0.6667 0.0000
vt 0.7500 0.6667 0.0000
vt 1.0000 0.6667 0.0000
vt 0.0000 0.7500 0.0000
vt 0.2500 0.7500 0.0000
vt 0.5000 0.7500 0.0000
vt 0.7500 0.7500 0.0000
vt 1.0000 0.7500 0.0000
vt 0.0000 0.8333 0.0000
vt 0.2500 0.8333 0.0000
vt 0.5000 0.8333 0.0000
vt 0.7500 0.8333 0.0000
vt 1.0000 0.8333 0.0000
vt 0.0000 0.9167 0.0000
vt 0.2500 0.9167 0.0000
vt 0.5000 0.9167 0.0000
vt 0.7500 0.9167 0.0000
vt 1.0000 0.9167 0.0000
vt 0.0000 1.0000 0.0000
vt 0.2500 1.0000 0.0000
vt 0.5000 1.0000 0.0000
vt 0.7500 1.0000 0.0000
vt 1.0000 1.0000 0.0000
# 65 texture coords

g water
usemtl 23___Default
s 1
f -65/-65/-1 -64/-64/-1 -63/-63/-1 -62/-62/-1 
f -62/-62/-1 -63/-63/-1 -61/-61/-1 -60/-60/-1 
f -60/-60/-1 -61/-61/-1 -59/-59/-1 -58/-58/-1 
f -58/-58/-1 -59/-59/-1 -57/-57/-1 -56/-56/-1 
f -55/-55/-1 -65/-65/-1 -62/-62/-1 -54/-54/-1 
f -54/-54/-1 -62/-62/-1 -60/-60/-1 -53/-53/-1 
f -53/-53/-1 -60/-60/-1 -58/-58/-1 -52/-52/-1 
f -52/-52/-1 -58/-58/-1 -56/-56/-1 -51/-51/-1 
f -50/-50/-1 -55/-55/-1 -54/-54/-1 -49/-49/-1 
f -49/-49/-1 -54/-54/-1 -53/-53/-1 -48/-48/-1 
f -48/-48/-1 -53/-53/-1 -52/-52/-1 -47/-47/-1 
f -47/-47/-1 -52/-52/-1 -51/-51/-1 -46/-46/-1 
f -45/-45/-1 -50/-50/-1 -49/-49/-1 -44/-44/-1 
f -44/-44/-1 -49/-49/-1 -48/-48/-1 -43/-43/-1 
f -43/-43/-1 -48/-48/-1 -47/-47/-1 -42/-42/-1 
f -42/-42/-1 -47/-47/-1 -46/-46/-1 -41/-41/-1 
f -40/-40/-1 -45/-45/-1 -44/-44/-1 -39/-39/-1 
f -39/-39/-1 -44/-44/-1 -43/-43/-1 -38/-38/-1 
f -38/-38/-1 -43/-43/-1 -42/-42/-1 -37/-37/-1 
f -37/-37/-1 -42/-42/-1 -41/-41/-1 -36/-36/-1 
f -35/-35/-1 -40/-40/-1 -39/-39/-1 -34/-34/-1 
f -34/-34/-1 -39/-39/-1 -38/-38/-1 -33/-33/-1 
f -33/-33/-1 -38/-38/-1 -37/-37/-1 -32/-32/-1 
f -32/-32/-1 -37/-37/-1 -36/-36/-1 -31/-31/-1 
f -30/-30/-1 -35/-35/-1 -34/-34/-1 -29/-29/-1 
f -29/-29/-1 -34/-34/-1 -33/-33/-1 -28/-28/-1 
f -28/-28/-1 -33/-33/-1 -32/-32/-1 -27/-27/-1 
f -27/-27/-1 -32/-32/-1 -31/-31/-1 -26/-26/-1 
f -25/-25/-1 -30/-30/-1 -29/-29/-1 -24/-24/-1 
f -24/-24/-1 -29/-29/-1 -28/-28/-1 -23/-23/-1 
f -23/-23/-1 -28/-28/-1 -27/-27/-1 -22/-22/-1 
f -22/-22/-1 -27/-27/-1 -26/-26/-1 -21/-21/-1 
f -20/-20/-1 -25/-25/-1 -24/-24/-1 -19/-19/-1 
f -19/-19/-1 -24/-24/-1 -23/-23/-1 -18/-18/-1 
f -18/-18/-1 -23/-23/-1 -22/-22/-1 -17/-17/-1 
f -17/-17/-1 -22/-22/-1 -21/-21/-1 -16/-16/-1 
f -15/-15/-1 -20/-20/-1 -19/-19/-1 -14/-14/-1 
f -14/-14/-1 -19/-19/-1 -18/-18/-1 -13/-13/-1 
f -13/-13/-1 -18/-18/-1 -17/-17/-1 -12/-12/-1 
f -12/-12/-1 -17/-17/-1 -16/-16/-1 -11/-11/-1 
f -10/-10/-1 -15/-15/-1 -14/-14/-1 -9/-9/-1 
f -9/-9/-1 -14/-14/-1 -13/-13/-1 -8/-8/-1 
f -8/-8/-1 -13/-13/-1 -12/-12/-1 -7/-7/-1 
f -7/-7/-1 -12/-12/-1 -11/-11/-1 -6/-6/-1 
f -5/-5/-1 -10/-10/-1 -9/-9/-1 -4/-4/-1 
f -4/-4/-1 -9/-9/-1 -8/-8/-1 -3/-3/-1 
f -3/-3/-1 -8/-8/-1 -7/-7/-1 -2/-2/-1 
f -2/-2/-1 -7/-7/-1 -6/-6/-1 -1/-1/-1 
# 48 polygons

